<svg width="460" height="74" viewBox="0 0 460 74" fill="none" xmlns="http://www.w3.org/2000/svg">
<path d="M55.6492 18.3258C55.5946 18.1621 55.5674 17.9712 55.5674 17.753C55.5674 17.153 55.7856 16.6349 56.2219 16.1985C56.6583 15.7621 57.1765 15.5439 57.7765 15.5439H63.9128C64.5128 15.5439 65.0583 15.7621 65.5492 16.1985C66.0947 16.5803 66.4492 17.0167 66.6128 17.5076L77.4947 42.7894L88.3765 17.5076C88.5401 17.0167 88.8674 16.5803 89.3583 16.1985C89.9037 15.7621 90.4765 15.5439 91.0765 15.5439H97.2128C97.8128 15.5439 98.331 15.7621 98.7674 16.1985C99.2037 16.6349 99.4219 17.153 99.4219 17.753C99.4219 17.9712 99.3946 18.1621 99.3401 18.3258L76.3492 71.6712C76.1856 72.1621 75.831 72.5985 75.2856 72.9803C74.7947 73.4167 74.2492 73.6349 73.6492 73.6349H67.5128C66.9128 73.6349 66.3947 73.4167 65.9583 72.9803C65.5219 72.544 65.3037 72.0258 65.3037 71.4258C65.3037 71.2076 65.331 71.0167 65.3856 70.853L71.8492 55.7985L55.6492 18.3258Z" fill="black"/>
<path d="M148.34 33.9545C148.394 34.5 148.422 35.4545 148.422 36.8182C148.422 38.1818 148.394 39.1364 148.34 39.6818C148.176 43.1182 147.331 46.3091 145.804 49.2545C144.276 52.1455 142.149 54.4909 139.422 56.2909C136.749 58.0364 133.64 58.9091 130.094 58.9091C127.04 58.9091 124.504 58.4182 122.485 57.4364C120.467 56.4545 118.885 55.3091 117.74 54V55.8818C117.74 56.4818 117.522 57 117.085 57.4364C116.649 57.8727 116.131 58.0909 115.531 58.0909H109.313C108.713 58.0909 108.194 57.8727 107.758 57.4364C107.322 57 107.104 56.4818 107.104 55.8818V2.20909C107.104 1.60909 107.322 1.09091 107.758 0.654547C108.194 0.218183 108.713 0 109.313 0H115.531C116.131 0 116.649 0.218183 117.085 0.654547C117.522 1.09091 117.74 1.60909 117.74 2.20909V19.6364C118.94 18.3273 120.549 17.1818 122.567 16.2C124.585 15.2182 127.094 14.7273 130.094 14.7273C133.64 14.7273 136.749 15.6273 139.422 17.4273C142.149 19.1727 144.276 21.5182 145.804 24.4636C147.331 27.3545 148.176 30.5182 148.34 33.9545ZM127.64 24.5455C124.967 24.5455 122.704 25.3909 120.849 27.0818C119.049 28.7182 118.013 30.9273 117.74 33.7091C117.685 34.2545 117.658 35.2909 117.658 36.8182C117.658 38.3455 117.685 39.3818 117.74 39.9273C118.013 42.8182 119.049 45.0818 120.849 46.7182C122.649 48.3 124.913 49.0909 127.64 49.0909C130.422 49.0909 132.713 48.2727 134.513 46.6364C136.313 45 137.376 42.4909 137.704 39.1091C137.813 38.0182 137.867 37.2545 137.867 36.8182C137.867 32.6727 136.94 29.5909 135.085 27.5727C133.231 25.5545 130.749 24.5455 127.64 24.5455Z" fill="black"/>
<path d="M177.642 25.3621C174.369 25.3621 171.997 26.0985 170.524 27.5712C169.106 28.9894 168.397 31.3349 168.397 34.6076V55.8803C168.397 56.4803 168.178 56.9985 167.742 57.4349C167.306 57.8712 166.788 58.0894 166.188 58.0894H159.969C159.369 58.0894 158.851 57.8712 158.415 57.4349C157.978 56.9985 157.76 56.4803 157.76 55.8803V17.753C157.76 17.153 157.978 16.6349 158.415 16.1985C158.851 15.7621 159.369 15.5439 159.969 15.5439H166.188C166.788 15.5439 167.306 15.7621 167.742 16.1985C168.178 16.6349 168.397 17.153 168.397 17.753V19.6349C169.869 18.2167 171.424 17.1803 173.06 16.5258C174.697 15.8712 176.769 15.5439 179.278 15.5439H182.96C183.56 15.5439 184.078 15.7621 184.515 16.1985C184.951 16.6349 185.169 17.153 185.169 17.753V23.153C185.169 23.753 184.951 24.2712 184.515 24.7076C184.078 25.1439 183.56 25.3621 182.96 25.3621H177.642Z" fill="black"/>
<path d="M230.155 33C230.264 34.3091 230.318 35.7 230.318 37.1727C230.318 38.5909 230.264 39.9545 230.155 41.2636C229.882 44.5909 228.873 47.6182 227.127 50.3455C225.382 53.0727 222.982 55.2273 219.927 56.8091C216.927 58.3909 213.491 59.1818 209.618 59.1818C205.745 59.1818 202.282 58.3909 199.227 56.8091C196.227 55.2273 193.855 53.0727 192.109 50.3455C190.364 47.6182 189.355 44.5909 189.082 41.2636C189.027 40.6091 189 39.2455 189 37.1727C189 35.0455 189.027 33.6545 189.082 33C189.355 29.6182 190.364 26.5636 192.109 23.8364C193.855 21.1091 196.227 18.9545 199.227 17.3727C202.282 15.7909 205.745 15 209.618 15C213.491 15 216.927 15.7909 219.927 17.3727C222.982 18.9545 225.382 21.1091 227.127 23.8364C228.873 26.5636 229.882 29.6182 230.155 33ZM209.618 24.8182C207 24.8182 204.764 25.4727 202.909 26.7818C201.109 28.0909 200.045 30.3 199.718 33.4091C199.664 33.9545 199.636 35.1818 199.636 37.0909C199.636 39 199.664 40.2273 199.718 40.7727C200.045 43.8818 201.109 46.0909 202.909 47.4C204.764 48.7091 207 49.3636 209.618 49.3636C212.236 49.3636 214.445 48.7091 216.245 47.4C218.1 46.0909 219.191 43.8818 219.518 40.7727C219.627 39.6818 219.682 38.4545 219.682 37.0909C219.682 35.7273 219.627 34.5 219.518 33.4091C219.191 30.3 218.1 28.0909 216.245 26.7818C214.445 25.4727 212.236 24.8182 209.618 24.8182Z" fill="black"/>
<path d="M287.705 17.5076C287.923 16.9076 288.195 16.4439 288.523 16.1167C288.85 15.7349 289.341 15.5439 289.995 15.5439H296.214C296.814 15.5439 297.332 15.7621 297.768 16.1985C298.205 16.6349 298.423 17.153 298.423 17.753C298.423 17.9712 298.395 18.1621 298.341 18.3258L285.986 56.0439C285.55 57.4076 284.759 58.0894 283.614 58.0894H277.395C276.741 58.0894 276.25 57.9258 275.923 57.5985C275.595 57.2167 275.295 56.6985 275.023 56.0439L267.086 34.1985L259.15 56.0439C258.877 56.6985 258.577 57.2167 258.25 57.5985C257.923 57.9258 257.432 58.0894 256.777 58.0894H250.559C249.414 58.0894 248.623 57.4076 248.186 56.0439L235.832 18.3258C235.777 18.1621 235.75 17.9712 235.75 17.753C235.75 17.153 235.968 16.6349 236.405 16.1985C236.841 15.7621 237.359 15.5439 237.959 15.5439H244.177C244.832 15.5439 245.323 15.7349 245.65 16.1167C245.977 16.4439 246.25 16.9076 246.468 17.5076L253.832 40.9076L261.686 17.5076C261.85 17.0167 262.123 16.5803 262.505 16.1985C262.941 15.7621 263.432 15.5439 263.977 15.5439H270.195C270.741 15.5439 271.205 15.7621 271.586 16.1985C272.023 16.5803 272.323 17.0167 272.486 17.5076L280.341 40.9076L287.705 17.5076Z" fill="black"/>
<path d="M317.331 55.8818C317.331 56.4818 317.113 57 316.677 57.4364C316.24 57.8727 315.722 58.0909 315.122 58.0909H308.904C308.304 58.0909 307.786 57.8727 307.349 57.4364C306.913 57 306.695 56.4818 306.695 55.8818V2.20909C306.695 1.60909 306.913 1.09091 307.349 0.654547C307.786 0.218183 308.304 0 308.904 0H315.122C315.722 0 316.24 0.218183 316.677 0.654547C317.113 1.09091 317.331 1.60909 317.331 2.20909V55.8818Z" fill="black"/>
<path d="M346.094 14.7285C351.712 14.7285 356.158 16.2012 359.43 19.1467C362.758 22.0922 364.421 26.3194 364.421 31.8285V55.8831C364.421 56.4831 364.203 57.0012 363.767 57.4376C363.33 57.874 362.812 58.0922 362.212 58.0922H355.994C355.394 58.0922 354.876 57.874 354.439 57.4376C354.003 57.0012 353.785 56.4831 353.785 55.8831V53.1831C352.53 54.9285 350.785 56.3194 348.548 57.3558C346.367 58.3922 343.721 58.9103 340.612 58.9103C336.03 58.9103 332.403 57.7376 329.73 55.3921C327.058 52.9921 325.721 49.9103 325.721 46.1467C325.721 42.4921 327.003 39.6012 329.567 37.474C332.185 35.2921 335.812 33.7922 340.448 32.974L353.785 30.6831C353.785 28.6103 353.076 27.0831 351.658 26.1012C350.294 25.0649 348.439 24.5467 346.094 24.5467C344.839 24.5467 343.803 24.7376 342.985 25.1194C342.221 25.4467 341.458 25.9649 340.694 26.674C339.876 27.4376 338.976 27.8194 337.994 27.8194H330.385C329.839 27.8194 329.376 27.6558 328.994 27.3285C328.667 26.9467 328.53 26.5103 328.585 26.0194C328.912 24.3285 329.758 22.6103 331.121 20.8649C332.539 19.1194 334.503 17.674 337.012 16.5285C339.576 15.3285 342.603 14.7285 346.094 14.7285ZM353.785 39.1103L342.658 41.074C340.476 41.4558 338.867 42.0285 337.83 42.7922C336.848 43.5012 336.358 44.4831 336.358 45.7376C336.358 46.8285 336.903 47.674 337.994 48.274C339.139 48.8194 340.558 49.0922 342.248 49.0922C344.648 49.0922 346.721 48.6558 348.467 47.7831C350.212 46.9103 351.521 45.7922 352.394 44.4285C353.321 43.0103 353.785 41.5103 353.785 39.9285V39.1103Z" fill="black"/>
<path d="M416.566 33.9545C416.621 34.5 416.648 35.4545 416.648 36.8182C416.648 38.1818 416.621 39.1364 416.566 39.6818C416.402 43.1182 415.557 46.3091 414.03 49.2545C412.502 52.1455 410.375 54.4909 407.648 56.2909C404.975 58.0364 401.866 58.9091 398.321 58.9091C395.266 58.9091 392.73 58.4182 390.711 57.4364C388.693 56.4545 387.111 55.3091 385.966 54V55.8818C385.966 56.4818 385.748 57 385.311 57.4364C384.875 57.8727 384.357 58.0909 383.757 58.0909H377.539C376.939 58.0909 376.421 57.8727 375.984 57.4364C375.548 57 375.33 56.4818 375.33 55.8818V2.20909C375.33 1.60909 375.548 1.09091 375.984 0.654547C376.421 0.218183 376.939 0 377.539 0H383.757C384.357 0 384.875 0.218183 385.311 0.654547C385.748 1.09091 385.966 1.60909 385.966 2.20909V19.6364C387.166 18.3273 388.775 17.1818 390.793 16.2C392.811 15.2182 395.321 14.7273 398.321 14.7273C401.866 14.7273 404.975 15.6273 407.648 17.4273C410.375 19.1727 412.502 21.5182 414.03 24.4636C415.557 27.3545 416.402 30.5182 416.566 33.9545ZM395.866 24.5455C393.193 24.5455 390.93 25.3909 389.075 27.0818C387.275 28.7182 386.239 30.9273 385.966 33.7091C385.911 34.2545 385.884 35.2909 385.884 36.8182C385.884 38.3455 385.911 39.3818 385.966 39.9273C386.239 42.8182 387.275 45.0818 389.075 46.7182C390.875 48.3 393.139 49.0909 395.866 49.0909C398.648 49.0909 400.939 48.2727 402.739 46.6364C404.539 45 405.602 42.4909 405.93 39.1091C406.039 38.0182 406.093 37.2545 406.093 36.8182C406.093 32.6727 405.166 29.5909 403.311 27.5727C401.457 25.5545 398.975 24.5455 395.866 24.5455Z" fill="black"/>
<path d="M436.705 41.074C432.123 40.0376 428.905 38.4558 427.05 36.3285C425.25 34.2012 424.35 31.3922 424.35 27.9012C424.35 25.6649 425.032 23.5376 426.396 21.5194C427.759 19.5012 429.723 17.8649 432.287 16.6103C434.85 15.3558 437.823 14.7285 441.205 14.7285C444.587 14.7285 447.559 15.2194 450.123 16.2012C452.741 17.1831 454.759 18.4922 456.177 20.1285C457.65 21.7649 458.441 23.4831 458.55 25.2831C458.605 25.8831 458.387 26.4012 457.896 26.8376C457.459 27.274 456.941 27.4922 456.341 27.4922H450.041C449.387 27.4922 448.868 27.4103 448.487 27.2467C448.105 27.0285 447.696 26.7285 447.259 26.3467C446.605 25.8012 445.841 25.3649 444.968 25.0376C444.15 24.7103 442.896 24.5467 441.205 24.5467C439.405 24.5467 437.905 24.8194 436.705 25.3649C435.559 25.9103 434.987 26.7558 434.987 27.9012C434.987 28.7194 435.259 29.374 435.805 29.8649C436.405 30.3012 437.414 30.7103 438.832 31.0921C440.25 31.4194 442.814 31.9921 446.523 32.8103C451.214 33.7921 454.596 35.374 456.668 37.5558C458.741 39.7376 459.777 42.5194 459.777 45.9012C459.777 48.1376 459.041 50.2649 457.568 52.2831C456.096 54.2467 453.968 55.8558 451.187 57.1103C448.459 58.3103 445.268 58.9103 441.614 58.9103C437.959 58.9103 434.768 58.3649 432.041 57.274C429.368 56.1285 427.296 54.6831 425.823 52.9376C424.405 51.1922 423.641 49.3922 423.532 47.5376C423.477 46.9376 423.668 46.4194 424.105 45.9831C424.596 45.5467 425.141 45.3285 425.741 45.3285H432.041C432.641 45.3285 433.132 45.4376 433.514 45.6558C433.896 45.874 434.305 46.2012 434.741 46.6376C435.505 47.4012 436.35 48.0012 437.277 48.4376C438.205 48.874 439.65 49.0922 441.614 49.0922C443.577 49.0922 445.323 48.8467 446.85 48.3558C448.378 47.8103 449.141 46.9921 449.141 45.9012C449.141 45.1921 448.868 44.6467 448.323 44.2649C447.777 43.8285 446.932 43.4467 445.787 43.1194C444.641 42.7921 442.677 42.3285 439.896 41.7285L436.705 41.074Z" fill="black"/>
<path d="M44.5909 3.54541C45.1909 3.54541 45.7091 3.76359 46.1455 4.19996C46.5818 4.63632 46.8 5.1545 46.8 5.7545V58.6091C46.8 59.209 46.5818 59.7272 46.1455 60.1636C45.7091 60.6 45.1909 60.8181 44.5909 60.8181H37.9636C37.3636 60.8181 36.8455 60.6 36.4091 60.1636C35.9727 59.7272 35.7545 59.209 35.7545 58.6091V37.009H11.0455V58.6091C11.0455 59.209 10.8273 59.7272 10.3909 60.1636C9.95455 60.6 9.43636 60.8181 8.83636 60.8181H2.20909C1.60909 60.8181 1.09091 60.6272 0.654545 60.2454C0.218182 59.809 0 59.2636 0 58.6091V5.7545C0 5.1545 0.218182 4.63632 0.654545 4.19996C1.09091 3.76359 1.60909 3.54541 2.20909 3.54541H8.83636C9.43636 3.54541 9.95455 3.76359 10.3909 4.19996C10.8273 4.63632 11.0455 5.1545 11.0455 5.7545V26.7818H35.7545V5.7545C35.7545 5.1545 35.9727 4.63632 36.4091 4.19996C36.8455 3.76359 37.3636 3.54541 37.9636 3.54541H44.5909Z" fill="#0038FF"/>
</svg>
